<svg width="600" height="231" viewBox="0 0 600 231" fill="none" xmlns="http://www.w3.org/2000/svg">
<g clip-path="url(#clip0_111_26)">
<path d="M503.482 37.9094C464.369 37.9094 430.685 61.1708 415.522 94.6244C415.391 67.6791 398.299 41.2162 358.213 37.9094L288.924 37.9094V74.1435L275.498 67.1265L285.793 60.5129L266.939 31.1292L237.543 49.9874L256.397 79.3887L257.108 78.9326L191.599 190.933C171.841 220.246 123.81 192.205 136.061 162.619L209.059 37.9796H240.998V0L203.026 0V32.0239L184.723 22.4544L112.602 146.682C110.524 150.471 109.024 154.287 108.024 158.102C102.105 144.235 89.9763 132.271 70.6919 126.543C117.057 109.378 115.426 40.1636 49.9518 37.9006L0 37.9006L0 230.991H64.9566C90.3797 230.079 106.788 212.072 111.172 191.003C128.422 229.044 188.687 251.648 218.109 203.8L288.915 82.0815L288.915 230.991H316.978L316.978 154.944H333.895L380.645 230.991H416.083L365.299 154.944C384.259 153.558 398.772 142.173 407.209 126.999C407.024 129.455 406.928 131.937 406.928 134.446C406.928 187.766 450.153 230.991 503.464 230.991C556.775 230.991 599.982 187.766 599.982 134.446C599.982 81.1254 556.766 37.9006 503.464 37.9006L503.482 37.9094ZM27.2823 58.592H49.7501C84.5304 63.539 79.5054 112.334 51.2584 113.763L27.2823 113.763L27.2823 58.592ZM53.7402 206.519H27.0104L27.0104 145.191H54.6523C90.0991 148.918 93.5806 203.046 53.7402 206.519ZM355.827 134.455H316.864V58.1184L356.766 58.1184C402.833 63.0303 397.58 134.455 355.827 134.455ZM503.21 203.607C465.132 203.607 434.263 172.732 434.263 134.648C434.263 96.5628 465.132 65.688 503.21 65.688C541.287 65.688 572.156 96.5628 572.156 134.648C572.156 172.732 541.287 203.607 503.21 203.607Z" fill="black"/>
</g>
<defs>
<clipPath id="clip0_111_26">
<rect width="600" height="231" fill="white"/>
</clipPath>
</defs>
</svg>
