<svg xmlns="http://www.w3.org/2000/svg" width="1440" height="246" fill="none"><path fill="#000" d="M1276.45 241.57v-10.452l11.98-6.471c1.94-8.296 9.45-40.594 22.51-96.895 13.17-56.3 23.05-98.222 29.63-125.764h34.01l53.44 221.498 11.98 7.632v10.452h-56.35v-8.793l9.23-7.466-10.85-47.95h-61.05l-11.01 47.618 11.66 6.139v10.452zm48.74-83.621h52.14l-25.91-114.482h-.32zM1064.47 241.572v-10.453l13.92-8.959V22.066l-13.27-8.794V3.65h48.09c6.37 0 10.96 1.051 13.76 3.153q4.38 3.151 6.48 12.61 17.97 97.557 27.21 178.358h.64l29.48-179.52c1.29-6.194 3.23-10.232 5.83-12.112 2.69-1.88 7.28-2.71 13.76-2.489h48.09v9.623l-12.95 8.794v199.43l14.57 10.287v9.789h-63.31v-9.789l14.57-10.287V61.554l1.14-34.013h-1.46l-36.44 210.713h-27.53c-6.58 0-10.36-3.208-11.33-9.623-14.25-87.604-25.48-153.86-33.68-198.767h-1.78l1.78 43.801V222.16l13.92 8.959v10.453zM903.11 13.602V3.647h62.992v9.955l-14.574 10.121v69.685h20.566q14.574 0 25.747 2.488 11.339 2.49 20.729 8.462c6.37 3.871 11.23 9.402 14.57 16.592 3.35 7.189 5.02 15.927 5.02 26.214v39.322c0 10.066-1.72 18.749-5.18 26.049q-5.025 10.95-14.25 17.255c-6.15 4.093-13.01 7.079-20.565 8.96q-11.336 2.82-25.424 2.82h-67.364v-9.457l12.631-8.96V23.723zm48.418 207.229h21.537q16.355 0 23.481-8.628c4.754-5.862 7.124-14.435 7.124-25.717v-39.322c0-11.171-2.48-19.633-7.448-25.385q-7.287-8.627-23.481-8.627h-21.213zM741.753 241.572v-9.789l14.898-10.286V22.067l-12.631-8.794V3.318h67.364q14.088 0 25.424 2.986 11.336 2.82 20.565 9.126 9.231 6.138 14.25 17.255 5.182 10.95 5.182 26.048v42.475q0 15.43-5.02 26.215t-14.574 16.757q-9.391 5.807-20.727 8.296-11.174 2.489-25.748 2.489h-20.565v66.532l14.574 10.286v9.789zm48.418-106.351h21.213q16.193 0 23.481-8.628 7.448-8.627 7.448-25.385V58.734q0-16.924-7.125-25.552-7.125-8.793-23.48-8.793h-21.537zM484.073 241.573v-9.789l14.897-10.287V22.067l-12.63-8.794V3.318h58.781v9.955l-12.63 8.794v86.939h41.131V63.214q0-28.372 18.136-45.793Q609.895 0 640.015 0q30.281 0 48.256 17.421 17.974 17.256 17.974 45.793v118.961q0 28.869-17.974 46.125-17.975 17.09-48.256 17.089-30.282 0-48.419-17.255-17.974-17.421-17.974-45.959v-52.097h-41.131v91.419l14.574 10.287v9.789zm124.041-59.398q0 40.65 31.901 40.65 15.707 0 23.804-11.449 8.259-11.448 8.258-29.201V63.214q0-17.754-8.258-29.201-8.097-11.448-23.804-11.614-31.901 0-31.901 40.815zM324.825 63.877l1.295-60.56h135.053l1.295 60.56h-15.869L435.263 24.72h-24.128v194.785l14.574 10.452v11.614h-64.125v-11.614l14.736-10.452V24.721h-24.938l-10.688 39.156zM178.935 241.572v-9.789l14.898-10.286V21.071l-12.631-8.794v-8.96h118.05v53.426h-16.517l-9.231-33.35h-45.179v89.429h31.901l8.582-18.749h10.04v57.407h-10.04l-8.582-17.919h-31.901v74.994q0 4.314-1.458 6.803-1.456 2.322-5.505 3.816v1.659h56.353l11.335-32.685h14.574v53.424zM0 241.573v-9.789l14.898-8.296V22.066l-12.63-8.793V3.318h58.781v9.955l-12.63 8.793v88.267h53.761V22.066l-12.63-8.793V3.318h58.781v9.955L135.7 22.066v201.422l14.898 8.296v9.789H87.606v-9.789l14.574-8.296v-93.742H48.418v93.742l14.898 8.296v9.789z"/></svg>