<svg width="231" height="600" viewBox="0 0 231 600" fill="none" xmlns="http://www.w3.org/2000/svg">
<g clip-path="url(#clip0_111_26)">
<path d="M193.091 503.482C193.091 464.369 169.829 430.685 136.376 415.522C163.321 415.391 189.784 398.299 193.091 358.213L193.091 288.924L156.857 288.924L163.874 275.498L170.487 285.793L199.871 266.939L181.013 237.543L151.611 256.397L152.067 257.108L40.0672 191.599C10.7536 171.841 38.7953 123.81 68.3808 136.061L193.02 209.059L193.02 240.998L231 240.998L231 203.026L198.976 203.026L208.546 184.723L84.3182 112.602C80.529 110.524 76.7135 109.024 72.898 108.024C86.7654 102.105 98.7293 89.9763 104.457 70.6919C121.622 117.057 190.836 115.426 193.099 49.9518L193.099 8.44064e-06L0.00878973 3.8284e-10L0.00878689 64.9566C0.920997 90.3797 18.9284 106.788 39.997 111.172C1.95602 128.422 -20.6475 188.687 27.1997 218.109L148.919 288.915L0.0087771 288.915L0.00877588 316.978L76.0556 316.978L76.0556 333.895L0.00877309 380.645L0.00877154 416.083L76.0556 365.299C77.4415 384.259 88.8266 398.772 104.001 407.209C101.545 407.024 99.0626 406.928 96.5541 406.928C43.2336 406.928 0.00877006 450.153 0.00876772 503.464C0.00876539 556.775 43.2336 599.982 96.5541 599.982C149.875 599.982 193.099 556.766 193.099 503.464L193.091 503.482ZM172.408 27.2823L172.408 49.7501C167.461 84.5304 118.666 79.5054 117.237 51.2584L117.237 27.2823L172.408 27.2823ZM24.4806 53.7402L24.4806 27.0104L85.8093 27.0104L85.8093 54.6523C82.0815 90.0991 27.954 93.5806 24.4806 53.7402ZM96.5453 355.827L96.5453 316.864L172.882 316.864L172.882 356.766C167.97 402.833 96.5453 397.58 96.5453 355.827ZM27.3927 503.21C27.3927 465.132 58.2675 434.263 96.3523 434.263C134.437 434.263 165.312 465.132 165.312 503.21C165.312 541.287 134.437 572.156 96.3523 572.156C58.2675 572.156 27.3926 541.287 27.3927 503.21Z" fill="black"/>
</g>
<defs>
<clipPath id="clip0_111_26">
<rect width="600" height="231" fill="white" transform="translate(231 1.00973e-05) rotate(90)"/>
</clipPath>
</defs>
</svg>
