<svg width="16" height="32" viewBox="0 0 16 32" fill="none" xmlns="http://www.w3.org/2000/svg">
<path d="M-1.39876e-06 32C2.10115 32 4.18172 31.5861 6.12293 30.7821C8.06414 29.978 9.82797 28.7994 11.3137 27.3137C12.7994 25.828 13.978 24.0641 14.7821 22.1229C15.5861 20.1817 16 18.1011 16 16C16 13.8988 15.5861 11.8183 14.7821 9.87706C13.978 7.93586 12.7994 6.17203 11.3137 4.68629C9.82797 3.20055 8.06414 2.022 6.12293 1.21793C4.18172 0.413851 2.10115 -7.91226e-07 -1.90735e-06 -6.99382e-07L-6.99382e-07 16L-1.39876e-06 32Z" fill="#EAEAEA"/>
</svg>
